<?xml version="1.0" encoding="utf-8"?>
<!-- Generator: Adobe Illustrator 18.0.0, SVG Export Plug-In . SVG Version: 6.00 Build 0)  -->
<!DOCTYPE svg PUBLIC "-//W3C//DTD SVG 1.1//EN" "http://www.w3.org/Graphics/SVG/1.1/DTD/svg11.dtd">
<svg version="1.1" id="Layer_1" xmlns="http://www.w3.org/2000/svg" xmlns:xlink="http://www.w3.org/1999/xlink" x="0px" y="0px"
	 width="100px" height="59px" viewBox="0 0 100 59" enable-background="new 0 0 100 59" xml:space="preserve">
<path fill="#003768" d="M3.8,5c0-2.8,2.3-5,5.1-5C11.8,0,14,2.3,14,5c0,2.8-2.3,5-5.1,5C6.1,10,3.8,7.8,3.8,5 M0.3,41.3h2.5
	c0.8,0,1.6-0.9,1.6-1.6V20.1c0-0.7-0.8-1.7-1.6-1.7H0v-5.7h12.2c1,0,1.6,1,1.6,3.6v23.4c0,0.8,0.8,1.6,1.6,1.6h2.5v5.4H0.3V41.3z"/>
<path fill="#003768" d="M20.1,29.8c0-10.9,7.8-17.6,18.1-17.6c5.3,0,8.3,1.2,10.4,2.3v7.1h-3.6c-1.4-1.3-3.8-2.5-6.8-2.5
	c-4.9,0-8.5,3.6-8.5,10.7c0,7.3,3.4,10.4,8.2,10.4c4,0,6.1-1.4,7.6-2.7h3.2V44c-2.1,1.4-5.8,3.1-11,3.1
	C26.6,47.1,20.1,40.6,20.1,29.8"/>
<path fill="#003768" d="M77.2,29.9c0-7.4-3.2-11-7.8-11c-4.6,0-7.8,3.6-7.8,11c0,7.3,3.2,10.5,7.8,10.5C74,40.4,77.2,37.2,77.2,29.9
	 M52,29.8c0-10.9,7.8-17.7,17.3-17.7c9.6,0,17.3,6.7,17.3,17.7c0,10.9-7.8,17.3-17.3,17.3C59.8,47.1,52,40.7,52,29.8"/>
<path fill="#003768" d="M89.4,41.9c0-2.9,2.3-5.2,5.3-5.2c2.9,0,5.3,2.3,5.3,5.2c0,2.9-2.4,5.2-5.3,5.2
	C91.7,47.1,89.4,44.8,89.4,41.9"/>
<path fill="#003768" d="M97.5,56.4c0.1-0.7,0.4-0.9,0.8-0.9c0.4,0,0.7,0.2,0.7,0.9H97.5z M98.3,54.9c-0.9,0-1.6,0.7-1.6,1.8
	c0,1.1,0.6,1.8,1.7,1.8h0c0.7,0,1-0.2,1.3-0.4l0,0v-0.5h-0.3l0,0c-0.2,0.2-0.5,0.3-0.9,0.3c-0.6,0-0.9-0.3-1-1h2.3v-0.1
	c0,0,0-0.1,0-0.2C99.8,55.5,99.3,54.9,98.3,54.9 M96,57.6c-0.1,0.1-0.4,0.3-0.8,0.3c-0.6,0-0.9-0.4-0.9-1.2c0-0.8,0.4-1.2,1-1.2
	c0.4,0,0.6,0.1,0.7,0.3l0,0h0.4v-0.6l0,0c-0.2-0.1-0.5-0.3-1.1-0.3c-1,0-1.8,0.7-1.8,1.8c0,1.1,0.6,1.8,1.7,1.8
	c0.6,0,0.9-0.2,1.1-0.4l0,0v-0.6L96,57.6L96,57.6z M92.5,53.8c-0.2,0-0.4,0.2-0.4,0.4c0,0.2,0.2,0.4,0.4,0.4c0.2,0,0.4-0.2,0.4-0.4
	C93,54,92.8,53.8,92.5,53.8 M92.5,55h-0.4v3.6h0.8v-3c0-0.2,0-0.4-0.1-0.4C92.8,55,92.7,55,92.5,55 M91.2,53.8c-0.6,0-1,0.3-1,1V55
	h-0.4v0.6h0.4v3H91v-3h0.7V55H91l0-0.2c0-0.3,0.1-0.4,0.4-0.4h0.3v-0.5l0,0C91.6,53.8,91.4,53.8,91.2,53.8 M89.1,53.8
	c-0.6,0-1,0.3-1,1V55h-0.4v0.6h0.4v3h0.8v-3h0.7V55h-0.7v-0.2c0-0.3,0.1-0.4,0.4-0.4h0.3v-0.5l0,0C89.5,53.8,89.3,53.8,89.1,53.8
	 M85.2,57.9c-0.8,0-1.3-0.5-1.3-1.8c0-1.2,0.6-1.8,1.3-1.8c0.7,0,1.3,0.6,1.3,1.8C86.5,57.4,85.9,57.9,85.2,57.9 M85.2,53.8
	c-1.2,0-2.1,0.9-2.1,2.4c0,1.5,1,2.4,2.1,2.4c1.1,0,2.1-0.9,2.1-2.4C87.3,54.6,86.4,53.8,85.2,53.8 M80.1,56.4
	c-0.5-0.1-0.7-0.2-0.7-0.4c0-0.3,0.2-0.4,0.6-0.4c0.4,0,0.6,0.1,0.8,0.2l0,0H81v-0.6l0,0c-0.2-0.1-0.5-0.3-1-0.2
	c-0.8,0-1.3,0.4-1.3,1.1c0,0.7,0.4,1,1.1,1c0.6,0.1,0.7,0.2,0.7,0.5c0,0.3-0.2,0.4-0.7,0.5c-0.4,0-0.7-0.2-0.8-0.3l0,0h-0.3v0.6l0,0
	c0.2,0.2,0.6,0.3,1.2,0.3h0c0.9,0,1.4-0.4,1.4-1.1C81.2,56.8,80.8,56.5,80.1,56.4 M78.1,53.8c-0.2,0-0.4,0.2-0.4,0.4
	c0,0.2,0.1,0.3,0.2,0.3c0.1,0.1,0.1,0.1,0.1,0.1c0,0.1-0.1,0.2-0.3,0.2l0,0v0.4l0.1,0c0.6-0.1,0.9-0.4,0.9-0.9
	C78.6,54,78.3,53.8,78.1,53.8 M76.9,55c-0.4,0-0.7,0.2-0.9,0.4c0-0.3-0.1-0.4-0.3-0.4h-0.5v3.6H76V56c0.2-0.2,0.5-0.4,1-0.4
	c0,0,0.1,0,0.1,0l0.1,0V55l0,0C77.1,55,77,55,76.9,55 M72.3,56.4c0.1-0.7,0.4-0.9,0.8-0.9c0.4,0,0.7,0.2,0.7,0.9H72.3z M73.1,54.9
	c-0.9,0-1.6,0.7-1.6,1.8c0,1.1,0.6,1.8,1.7,1.8h0c0.7,0,1-0.2,1.3-0.4l0,0v-0.5h-0.3l0,0C74,57.8,73.7,58,73.3,58
	c-0.6,0-0.9-0.3-1-1h2.3v0c0,0,0-0.1,0-0.2C74.6,55.5,74.1,54.9,73.1,54.9 M70,54.9c-0.5,0-0.9,0.2-1.3,0.4c0-0.3-0.1-0.4-0.3-0.4
	H68v3.6h0.8v-2.6c0.3-0.2,0.6-0.3,1-0.3c0.3,0,0.5,0.1,0.5,0.5l0,2.4H71v-2.6C71,55.2,70.5,54.9,70,54.9 M66.6,56.8
	c0,0.8-0.4,1.2-0.9,1.2c-0.6,0-0.9-0.4-0.9-1.2c0-0.8,0.4-1.2,0.9-1.2C66.3,55.5,66.6,56,66.6,56.8L66.6,56.8z M65.7,54.9
	c-1,0-1.7,0.7-1.7,1.8c0,1.1,0.7,1.8,1.7,1.8c1,0,1.7-0.7,1.7-1.8C67.4,55.6,66.7,54.9,65.7,54.9 M63,55h-0.4v3.6h0.8v-3
	c0-0.2,0-0.4-0.1-0.4C63.3,55,63.2,55,63,55 M63,53.8c-0.2,0-0.4,0.2-0.4,0.4c0,0.2,0.2,0.4,0.4,0.4c0.2,0,0.4-0.2,0.4-0.4
	C63.5,54,63.3,53.8,63,53.8 M60.9,56.4c-0.5-0.1-0.7-0.2-0.7-0.4c0-0.3,0.2-0.4,0.6-0.4c0.4,0,0.6,0.1,0.8,0.2l0,0h0.3v-0.6l0,0
	c-0.2-0.1-0.5-0.3-1-0.2c-0.8,0-1.3,0.4-1.3,1.1c0,0.7,0.4,1,1.1,1c0.6,0.1,0.7,0.2,0.7,0.5c0,0.3-0.2,0.4-0.7,0.5
	c-0.4,0-0.7-0.2-0.8-0.3l0,0h-0.3v0.6l0,0c0.2,0.2,0.6,0.3,1.2,0.3h0c0.9,0,1.4-0.4,1.4-1.1C62,56.8,61.6,56.5,60.9,56.4 M57.9,56.4
	c-0.5-0.1-0.7-0.2-0.7-0.4c0-0.3,0.2-0.4,0.6-0.4c0.4,0,0.6,0.1,0.8,0.2l0,0h0.3v-0.6l0,0c-0.2-0.1-0.5-0.3-1-0.3
	c-0.8,0-1.3,0.4-1.3,1.1c0,0.7,0.4,1,1.1,1c0.6,0.1,0.7,0.2,0.7,0.5c0,0.3-0.2,0.4-0.7,0.5c-0.4,0-0.7-0.2-0.8-0.3l0,0h-0.3v0.6l0,0
	c0.2,0.2,0.6,0.3,1.2,0.3h0c0.9,0,1.4-0.4,1.4-1.1C59.1,56.8,58.7,56.5,57.9,56.4 M55.5,53.8c-0.2,0-0.4,0.2-0.4,0.4
	c0,0.2,0.2,0.4,0.4,0.4c0.2,0,0.4-0.2,0.4-0.4C56,54,55.7,53.8,55.5,53.8 M55.5,55h-0.4v3.6h0.8v-3c0-0.2,0-0.4-0.1-0.4
	C55.8,55,55.7,55,55.5,55 M53.4,54.9c-0.5,0-0.9,0.2-1.3,0.5c-0.1-0.3-0.5-0.5-0.8-0.5c-0.5,0-0.9,0.2-1.2,0.4
	c0-0.3-0.1-0.4-0.3-0.4h-0.5v3.6h0.8v-2.6c0.3-0.2,0.5-0.3,0.9-0.3c0.3,0,0.4,0.1,0.4,0.5v2.5h0.8v-2.6c0.3-0.2,0.6-0.3,0.9-0.3
	c0.3,0,0.4,0.1,0.4,0.5v2.5h0.8v-2.6C54.3,55.2,53.9,54.9,53.4,54.9 M47.7,54.9c-0.5,0-0.9,0.2-1.3,0.5c-0.1-0.3-0.5-0.5-0.8-0.5
	c-0.5,0-0.9,0.2-1.2,0.4c0-0.3-0.1-0.4-0.3-0.4h-0.5v3.6h0.8v-2.6c0.3-0.2,0.5-0.3,0.9-0.3c0.3,0,0.4,0.1,0.4,0.5v2.5h0.8v-2.6
	c0.2-0.2,0.5-0.3,0.9-0.3c0.3,0,0.4,0.1,0.4,0.5v2.5h0.8v-2.6C48.6,55.2,48.2,54.9,47.7,54.9 M41.4,58c-0.6,0-0.9-0.4-0.9-1.2
	c0-0.8,0.4-1.2,0.9-1.2c0.6,0,0.9,0.4,0.9,1.2C42.3,57.6,41.9,58,41.4,58 M41.4,54.9c-1,0-1.7,0.7-1.7,1.8c0,1.1,0.7,1.8,1.7,1.8
	c1,0,1.7-0.7,1.7-1.8C43.1,55.6,42.3,54.9,41.4,54.9 M39,57.4c-0.3,0.3-0.6,0.5-1.2,0.5c-0.8,0-1.3-0.6-1.3-1.8
	c0-1.1,0.5-1.7,1.3-1.7c0.5,0,0.8,0.2,1,0.4l0,0h0.3v-0.6l0,0c-0.3-0.2-0.7-0.4-1.4-0.4c-1.2,0-2.2,0.9-2.2,2.4
	c0,1.5,0.8,2.4,2.1,2.4c0.7,0,1.2-0.2,1.5-0.5l0,0v-0.6L39,57.4L39,57.4z M32.7,54.9c-0.5,0-0.9,0.2-1.3,0.4c0-0.3-0.1-0.4-0.3-0.4
	h-0.5v3.6h0.8v-2.6c0.3-0.2,0.6-0.3,1-0.3c0.3,0,0.5,0.1,0.5,0.5v2.4h0.8v-2.6C33.6,55.2,33.2,54.9,32.7,54.9 M29.3,56.8
	c0,0.8-0.4,1.2-0.9,1.2c-0.6,0-0.9-0.4-0.9-1.2c0-0.8,0.4-1.2,0.9-1.2C28.9,55.5,29.3,56,29.3,56.8L29.3,56.8z M28.4,54.9
	c-1,0-1.7,0.7-1.7,1.8c0,1.1,0.7,1.8,1.7,1.8c1,0,1.7-0.7,1.7-1.8C30.1,55.6,29.3,54.9,28.4,54.9 M25.7,53.8c-0.2,0-0.4,0.2-0.4,0.4
	c0,0.2,0.2,0.4,0.4,0.4c0.2,0,0.4-0.2,0.4-0.4C26.1,54,25.9,53.8,25.7,53.8 M25.7,55h-0.4v3.6h0.8v-3c0-0.2,0-0.4-0.1-0.4
	C26,55,25.9,55,25.7,55 M24,57.6v-2h0.8V55H24V54h-0.8V55h-0.4v0.6h0.4v2.1c0,0.7,0.4,0.9,1,0.9c0.2,0,0.4,0,0.6-0.1l0,0V58h-0.4
	C24.1,58,24,57.9,24,57.6 M21.5,57.6c-0.2,0.2-0.4,0.4-0.7,0.4c-0.4,0-0.6-0.2-0.6-0.6c0-0.4,0.3-0.5,0.7-0.5c0.2,0,0.4,0,0.6,0.1
	V57.6z M21,54.9c-0.6,0-1,0.1-1.3,0.3l0,0v0.6H20l0,0c0.2-0.2,0.5-0.3,0.9-0.3c0.4,0,0.6,0.2,0.6,0.5v0.4c-0.2-0.1-0.4-0.1-0.7-0.1
	c-0.8,0-1.4,0.4-1.4,1.1c0,0.7,0.5,1.1,1.1,1.1h0c0.4,0,0.7-0.1,1-0.4c0,0.2,0.2,0.3,0.4,0.3h0.3V56C22.3,55.3,21.8,54.9,21,54.9
	 M18,54.9c-0.5,0-0.9,0.2-1.3,0.5c-0.1-0.3-0.5-0.5-0.8-0.5c-0.5,0-0.9,0.2-1.2,0.4c0-0.3-0.1-0.4-0.3-0.4h-0.5v3.6h0.8v-2.6
	c0.3-0.2,0.5-0.3,0.9-0.3c0.3,0,0.4,0.1,0.4,0.5v2.5h0.8v-2.6c0.2-0.2,0.5-0.3,0.9-0.3c0.3,0,0.4,0.1,0.4,0.5v2.5h0.8v-2.6
	C18.9,55.2,18.5,54.9,18,54.9 M13.2,55c-0.4,0-0.7,0.2-0.9,0.4c0-0.3-0.1-0.4-0.3-0.4h-0.5v3.6h0.8V56c0.2-0.2,0.5-0.4,1-0.4
	c0,0,0.1,0,0.1,0l0.1,0V55l0,0C13.4,55,13.3,55,13.2,55 M9.2,58c-0.6,0-0.9-0.4-0.9-1.2c0-0.8,0.4-1.2,0.9-1.2
	c0.6,0,0.9,0.4,0.9,1.2C10.1,57.6,9.8,58,9.2,58 M9.2,54.9c-1,0-1.7,0.7-1.7,1.8c0,1.1,0.7,1.8,1.7,1.8c1,0,1.7-0.7,1.7-1.8
	C10.9,55.6,10.2,54.9,9.2,54.9 M6.8,53.8c-0.6,0-1,0.3-1,1V55H5.4v0.6h0.4l0,3h0.8v-3h0.7V55H6.6v-0.2c0-0.3,0.1-0.4,0.4-0.4h0.3
	v-0.5l0,0C7.2,53.8,7.1,53.8,6.8,53.8 M4,54.9c-0.5,0-0.9,0.2-1.3,0.4c0-0.3-0.1-0.4-0.3-0.4H2v3.6h0.8v-2.6c0.3-0.2,0.6-0.3,1-0.3
	c0.3,0,0.5,0.1,0.5,0.5v2.4H5v-2.6C5,55.2,4.5,54.9,4,54.9 M0.3,58.5h0.8v-4.7H0.3V58.5z"/>
</svg>
