<svg id="Layer_1" data-name="Layer 1" xmlns="http://www.w3.org/2000/svg" viewBox="0 0 360 360"><defs><style>.cls-1{fill:#0e2050;}.cls-2{fill:#fff;}</style></defs><title>OII_Oxford_blue_logo_RGB</title><polygon class="cls-1" points="360 360 0 360 0 0 360 0 360 360 360 360"/><path class="cls-2" d="M71.25,299.47c0-12.56-6.09-21.33-16.37-21.33-11.17,0-16.38,10.53-16.38,21.33,0,12.56,6.1,21.31,16.38,21.31,11.17,0,16.37-10.52,16.37-21.31Zm7.62-.25c0,13.82-10.66,23.85-24,23.85-13.58,0-24-10.15-24-23.36,0-13.82,10.66-23.85,24-23.85,13.58,0,24,10.15,24,23.36Z"/><path class="cls-2" d="M217.72,299.47c0-12.56-6.1-21.33-16.37-21.33-11.17,0-16.37,10.53-16.37,21.33,0,12.56,6.09,21.31,16.37,21.31,11.16,0,16.37-10.52,16.37-21.31Zm7.61-.25c0,13.82-10.66,23.85-24,23.85-13.59,0-24-10.15-24-23.36,0-13.82,10.66-23.85,24-23.85,13.58,0,24,10.15,24,23.36Z"/><path class="cls-2" d="M254.4,307.07c-2.67-3.8-3.68-5.19-7-5.19h-3.56v15.48c0,1.27.51,1.89,1.91,2.15l5.2,1.15v1.65H230.54v-1.65l4.69-1.15c1.4-.37,1.9-.88,1.9-2.15V281.57c0-1.27-.5-1.78-1.9-2.16l-4.69-1.14v-1.65h19.92a27.55,27.55,0,0,1,9.52,1.26,12,12,0,0,1,7.74,11.05c0,5.59-4.18,10.29-11.17,11.92v.26c1.4.64,2.16,1.53,7.11,8l6.22,8.24a5.26,5.26,0,0,0,3.43,2.29l4.57,1v1.65H267c-1.27,0-1.9-.38-3-1.91l-9.52-13.33Zm-10.54-7.36h5.71c8.64,0,10.54-5.44,10.54-10.66a9.73,9.73,0,0,0-5.84-9.38c-2.16-.89-4.19-.89-7-.89h-3.43v20.93Z"/><path class="cls-2" d="M164.92,292.23h1.9v15.23h-1.9l-1.14-4.57a2.67,2.67,0,0,0-2.92-2.28H149.81v16.75c0,1.27.51,1.89,1.91,2.15l5.2,1.15v1.65H136.49v-1.65l4.69-1.15c1.4-.37,1.91-.88,1.91-2.15V281.57c0-1.27-.51-1.78-1.91-2.16l-4.69-1.14v-1.65H171v11.43h-1.9L167,281.19c-.51-1.78-1.27-2.41-2.79-2.41H149.81v19.67h11.05a2.74,2.74,0,0,0,2.92-2.29l1.14-3.93Z"/><path class="cls-2" d="M294.89,278.78v39.33c0,1.66.37,2.05,2,2.05h5.58c5.33,0,9.26-.77,12.06-2.8,4.69-3.42,6.85-9.64,6.85-17.52s-2.16-15.34-8.5-19c-2.67-1.53-6.09-2-11.43-2Zm-13.33,43.53v-1.65l4.69-1.15c1.4-.37,1.91-.88,1.91-2.15V281.57c0-1.27-.51-1.78-1.91-2.16l-4.69-1.14v-1.65H303c5.83,0,10,.76,13.45,2.28,8.63,3.94,12.57,12.44,12.57,20.81,0,8.14-3,15.74-10.79,19.8-3.55,1.92-8.5,2.8-15,2.8Z"/><path class="cls-2" d="M96.77,320.66v1.65H80.65v-1.65l4-1a6.42,6.42,0,0,0,3.56-2l14-17.52-14-18.53a5.78,5.78,0,0,0-3.43-2.29l-3.81-1v-1.65h20.06v1.65l-4.31.89c-1.53.25-1.15.88-.39,1.9l10.28,14.73h.25l10.54-14.73c.76-1,1-1.39-.38-1.78l-4.06-1v-1.65h16.12v1.65l-4.07,1a6.37,6.37,0,0,0-3.55,2L108.31,298,123,317.36a5.85,5.85,0,0,0,3.43,2.29l3.81,1v1.65H110.22v-1.65l4.31-.89c1.53-.26,1.27-.75.51-1.79l-11.17-15.73h-.25l-11.3,15.63c-.76,1-1,1.37.38,1.77l4.07,1Z"/><path class="cls-2" d="M48.69,255.11a7.9,7.9,0,0,1-5.8,2.11A8.24,8.24,0,0,1,37,255.05c-2-2-1.88-4.49-1.88-7.18V235.16h2.59v13.66c0,1.72,0,3.41,1.28,4.74A5.56,5.56,0,0,0,43,255a5.17,5.17,0,0,0,3.69-1.36c1.48-1.48,1.39-3.1,1.39-7V235.16h2.55V246c0,4.09.17,7.06-1.93,9.16Z"/><polygon class="cls-2" points="71.69 256.81 61.26 239.07 61.33 256.81 58.94 256.81 58.94 235.16 61.6 235.16 72.06 253 72 235.16 74.38 235.16 74.38 256.81 71.69 256.81 71.69 256.81"/><polygon class="cls-2" points="83.41 256.81 83.41 235.16 86.01 235.16 86.01 256.81 83.41 256.81 83.41 256.81"/><polygon class="cls-2" points="102.2 256.81 99.22 256.81 91.76 235.16 94.47 235.16 100.79 254.27 107.29 235.16 109.81 235.16 102.2 256.81 102.2 256.81"/><polygon class="cls-2" points="115.7 256.81 115.7 235.16 127.47 235.16 127.47 237.32 118.25 237.32 118.25 244.47 126.91 244.47 126.91 246.57 118.25 246.57 118.25 254.58 127.73 254.58 127.73 256.81 115.7 256.81 115.7 256.81"/><path class="cls-2" d="M146.55,256.81l-2.49-5.61c-1.54-3.45-2.24-3.81-5.38-3.81h-1.51v9.42h-2.55V235.16h4.67c2.89,0,5.06,0,6.77,1.69a5.88,5.88,0,0,1,1.68,4.33,5.22,5.22,0,0,1-1.34,3.72,5.79,5.79,0,0,1-3.47,1.7,2.88,2.88,0,0,1,1.8.87,9.73,9.73,0,0,1,1.65,2.89l2.88,6.45Zm-2.37-18.39c-1.24-1.24-2.85-1.18-4.61-1.18h-2.4v8.08H138c2.19,0,4.54.11,6-1.37a4,4,0,0,0,1.12-2.82,3.92,3.92,0,0,0-1-2.71Z"/><polygon class="cls-2" points="174.54 256.81 174.54 235.16 177.14 235.16 177.14 256.81 174.54 256.81 174.54 256.81"/><polygon class="cls-2" points="192.01 237.32 192.01 256.81 189.4 256.81 189.4 237.32 182.97 237.32 182.97 235.16 198.42 235.16 198.42 237.32 192.01 237.32 192.01 237.32"/><polygon class="cls-2" points="210.88 248.25 210.88 256.81 208.31 256.81 208.31 248.25 201.44 235.16 204.41 235.16 209.75 245.31 214.93 235.16 217.75 235.16 210.88 248.25 210.88 248.25"/><path class="cls-2" d="M242,257.22c-5.6,0-9.7-4.63-9.7-11.14,0-6.68,4-11.33,9.9-11.33,5.66,0,9.66,4.6,9.66,11.14,0,6.69-4,11.33-9.86,11.33ZM242,237c-4.24,0-7,3.58-7,9s3.07,9,7.14,9c4.52,0,7-3.85,7-9.22s-3-8.8-7.18-8.8Z"/><polygon class="cls-2" points="261.61 237.32 261.61 244.47 269.97 244.47 269.97 246.57 261.61 246.57 261.61 256.81 259.02 256.81 259.02 235.16 270.52 235.16 270.52 237.32 261.61 237.32 261.61 237.32"/><path class="cls-2" d="M154.5,240.44c0-3.32,2.68-5.69,6.59-5.69a8,8,0,0,1,6,2.26l-1.27,1.53a7.78,7.78,0,0,0-4.61-1.64c-2.76,0-4.29,1.44-4.29,3.4a2.8,2.8,0,0,0,1,2.19,12.49,12.49,0,0,0,3,1.69,15.19,15.19,0,0,1,4.78,2.8,5.45,5.45,0,0,1,1.62,3.91c0,3.6-2.5,6.34-7,6.34a10.07,10.07,0,0,1-6.48-2.32l1.2-1.76a10.37,10.37,0,0,0,5.21,1.88c3.26,0,4.48-1.78,4.48-3.93a3.36,3.36,0,0,0-1.13-2.45,14.7,14.7,0,0,0-4-2.29,12.13,12.13,0,0,1-3.85-2.41,4.93,4.93,0,0,1-1.31-3.51Z"/><path class="cls-2" d="M253.93,88.73c0-2.72-.92-4.92-2.91-6.09a10,10,0,0,0-5-1H230.85v30.6h16.49c3.8,0,6,.86,6.23,4.27h.37V88.73Z"/><path class="cls-2" d="M256.05,88.73c0-2.72.92-4.92,2.91-6.09a10.05,10.05,0,0,1,5-1h15.26v30.6h-16.6c-3.81,0-6,.86-6.24,4.27h-.36V88.73Z"/><path class="cls-2" d="M282.41,83.93v32.35H259l-.27.66c-.4,1-1.13,2-3.69,2s-3.29-.94-3.7-2l-.27-.66H227.66V83.93h-2.12v1l-2-.62a1.92,1.92,0,1,0-1.85,2.46,1.92,1.92,0,0,0,1.22-.44l2.65.81v2.6l-2-.35a1.93,1.93,0,1,0-1.77,2.68,1.9,1.9,0,0,0,1.39-.6l2.37.42v2.65l-2.08-.09a1.9,1.9,0,0,0-1.64-.94,1.93,1.93,0,1,0,1.55,3.06l2.17.09v2.88l-2.12.08a1.93,1.93,0,1,0,.07,2.11l2-.07v2.66l-2.32.4a1.9,1.9,0,0,0-1.4-.62,1.93,1.93,0,1,0,1.76,2.7l2-.34v2.61l-2.54.78a1.87,1.87,0,0,0-1.22-.45,1.93,1.93,0,1,0,1.84,2.47l1.92-.59v2.52L222.73,115a1.82,1.82,0,0,0-1.06-.32,1.93,1.93,0,1,0,1.9,2.26l2-.85v2.3h24.21c1,1.72,2.69,2.6,5.27,2.6s4.28-.88,5.27-2.6h24.24V83.93Z"/><path class="cls-2" d="M239.09,73.15c-4.89,0-8.86.76-8.86,1.69s4,1.7,8.86,1.7,8.86-.76,8.86-1.7-4-1.69-8.86-1.69Z"/><path class="cls-2" d="M251.29,62.53l-5.12,3.6,0,.36,1.22.55c.24.12.24.31.12.43l-3.22,2.71-.3,0-2.28-3.35c-.15-.22-.1-.44.18-.48l1.53-.25v-.39l-4-5.59h-.66l-3.95,5.59v.39l1.52.25c.28,0,.33.26.18.48l-2.28,3.35-.3,0-3-2.71c-.13-.12-.12-.31.12-.43l1.21-.55,0-.36-5.33-3.6-.43.17,3.13,9.56c1.58-.72,5.23-1.22,9.5-1.24s7.92.52,9.5,1.24l3.13-9.56-.43-.17Z"/><path class="cls-2" d="M255,137.22c-4.89,0-8.86.77-8.86,1.7s4,1.7,8.86,1.7,8.86-.76,8.86-1.7-4-1.7-8.86-1.7Z"/><path class="cls-2" d="M267.18,126.61l-5.12,3.6,0,.36,1.21.55c.24.12.25.31.13.43l-3.22,2.71-.3,0-2.28-3.35c-.15-.22-.1-.44.18-.48l1.52-.25v-.39l-4-5.59h-.65l-4,5.59v.39l1.53.25c.28,0,.33.26.18.48l-2.28,3.35-.31,0-3-2.71c-.12-.12-.12-.31.12-.43l1.22-.55,0-.36-5.33-3.6-.43.17,3.12,9.56c1.59-.72,5.24-1.22,9.51-1.24s7.91.52,9.5,1.24l3.13-9.56-.43-.17Z"/><path class="cls-2" d="M270.83,73.15c-4.89,0-8.86.76-8.86,1.69s4,1.7,8.86,1.7,8.86-.76,8.86-1.7-4-1.69-8.86-1.69Z"/><path class="cls-2" d="M283,62.53l-5.12,3.6,0,.36,1.21.55c.24.12.25.31.12.43L276,70.18l-.3,0-2.28-3.35c-.16-.22-.1-.44.17-.48l1.53-.25v-.39l-4-5.59h-.65l-4,5.59v.39l1.53.25c.27,0,.33.26.17.48L266,70.15l-.31,0-3-2.75c-.12-.11-.12-.31.12-.43l1.22-.51-.05-.36-5.32-3.6-.43.17,3.12,9.56c1.59-.72,5.24-1.22,9.51-1.24s7.91.52,9.5,1.24l3.13-9.56-.43-.17Z"/><path class="cls-1" d="M234.43,89.84c0,.6.15.71.47.71.58,0,1.17-.64,1.17-1.83,0-1.45-.74-1.86-1.31-1.86a.57.57,0,0,0-.29,0s0,.17,0,.34v2.59Zm.33-3.31a2.74,2.74,0,0,1,2,.6,1.92,1.92,0,0,1,.58,1.38c0,1.68-1.27,2.4-2.83,2.4h-1.74v-.26c.49,0,.54-.09.54-.82V87.61c0-.73-.05-.78-.49-.82v-.26Z"/><path class="cls-1" d="M239.15,88.55c0,1.22.46,2.11,1.12,2.11s.9-.56.9-1.78-.49-2.1-1.07-2.1-.95.59-.95,1.77Zm3.27.11A2.2,2.2,0,0,1,240.14,91a2.16,2.16,0,0,1-2.24-2.23,2.26,2.26,0,0,1,2.34-2.35,2.13,2.13,0,0,1,2.18,2.23Z"/><path class="cls-1" d="M248.38,86.53v.26c-.51,0-.54.07-.52.78l.07,2.26c0,.75,0,.77.52.82v.26h-2.12v-.26c.51-.05.53-.07.52-.82V87.46h0l-1.3,3.38h-.37l-1.23-3.15h0l0,1.5a7.23,7.23,0,0,0,0,1.11c0,.25.17.31.61.35v.26h-1.66v-.26c.32,0,.45-.1.49-.35s.07-.56.11-1.18l.07-1.36c.05-.85,0-.92-.54-1v-.26h1.59l1.18,2.67,1-2.67Z"/><path class="cls-1" d="M250.57,89.83c0,.73.05.78.52.82v.26h-2.18v-.26c.46,0,.51-.09.51-.82V87.61c0-.73,0-.78-.51-.82v-.26h2.18v.26c-.47,0-.52.09-.52.82v2.22Z"/><path class="cls-1" d="M239.71,99.05h-.58l-2.5-3.18h0v1.24a10.33,10.33,0,0,0,0,1.29c0,.23.22.32.66.34V99h-1.68v-.27c.3,0,.47-.11.51-.34s.05-.58.05-1.29V95.87c0-.5,0-.59-.15-.78s-.26-.18-.51-.21v-.26H237l2.25,2.8h0v-.9c0-.71,0-1.08-.05-1.29s-.22-.32-.66-.35v-.26h1.72v.26c-.34,0-.52.11-.55.35a10.33,10.33,0,0,0,0,1.29v2.53Z"/><path class="cls-1" d="M242.44,99.05c-.47-1.21-1.1-2.88-1.34-3.51s-.36-.62-.68-.66v-.26h2.17v.26l-.23,0c-.24,0-.24.09-.17.33s.65,1.7.9,2.36c.21-.57.64-1.86.75-2.18s.1-.48-.2-.51l-.2,0v-.26h1.63v.26c-.39.05-.48.09-.74.7,0,.09-.87,2.1-1.37,3.47Z"/><path class="cls-1" d="M245.48,97.62c.14.39.54,1.14,1.2,1.14a.6.6,0,0,0,.62-.67c0-.4-.26-.62-.67-.81l-.1,0c-.56-.26-1.18-.61-1.18-1.33s.55-1.38,1.61-1.38a2.57,2.57,0,0,1,.62.08l.35.1c0,.26.07.59.15,1l-.3,0c-.15-.44-.38-.92-.92-.92a.57.57,0,0,0-.58.59c0,.33.26.53.69.73l.15.06c.62.29,1.15.63,1.15,1.42a1.51,1.51,0,0,1-1.71,1.44,2.47,2.47,0,0,1-.73-.12l-.42-.16c-.06-.31-.14-.67-.23-1.13l.3-.08Z"/><path class="cls-1" d="M236.71,106c0,.73,0,.78.52.82v.26H235v-.26c.47,0,.52-.09.52-.82v-2.23c0-.72-.05-.77-.52-.81v-.26h2.19V103c-.47,0-.52.09-.52.81V106Z"/><path class="cls-1" d="M239.38,106.11c0,.35,0,.52.13.58a1.22,1.22,0,0,0,.47.06.82.82,0,0,0,.65-.2,1.71,1.71,0,0,0,.33-.66l.29,0c0,.26-.18,1-.24,1.17h-3.35v-.26c.52,0,.57-.09.57-.82v-2.23c0-.72,0-.77-.5-.81v-.26h2.19V103c-.49,0-.54.09-.54.81v2.32Z"/><path class="cls-1" d="M243.14,106.11c0,.35,0,.52.14.58a1.19,1.19,0,0,0,.47.06.84.84,0,0,0,.65-.2,1.86,1.86,0,0,0,.33-.66l.29,0c0,.26-.18,1-.24,1.17h-3.35v-.26c.51,0,.57-.09.57-.82v-2.23c0-.72-.06-.77-.51-.81v-.26h2.19V103c-.48,0-.54.09-.54.81v2.32Z"/><path class="cls-1" d="M246.37,107.15c-.47-1.22-1.1-2.88-1.35-3.52s-.35-.61-.68-.65v-.26h2.18V103l-.23,0c-.25,0-.25.08-.17.32s.65,1.71.9,2.37c.21-.58.64-1.86.75-2.18s.1-.49-.2-.52l-.21,0v-.26H249V103c-.39,0-.48.08-.75.69,0,.1-.86,2.1-1.36,3.48Z"/><path class="cls-1" d="M264.49,86.53v.26c-.52,0-.54.07-.53.78l.07,2.26c0,.75,0,.77.52.82v.26h-2.11v-.26c.51-.05.53-.07.52-.82l0-2.37h0l-1.3,3.38h-.36L260,87.69h0l-.05,1.5a6.81,6.81,0,0,0,0,1.11c0,.25.17.31.61.35v.26h-1.67v-.26c.33,0,.45-.1.49-.35a9.11,9.11,0,0,0,.11-1.18l.08-1.36c0-.85,0-.92-.54-1v-.26h1.58l1.18,2.67,1-2.67Z"/><path class="cls-1" d="M266.68,89.83c0,.73.05.78.52.82v.26H265v-.26c.47,0,.52-.09.52-.82V87.61c0-.73,0-.78-.52-.82v-.26h2.19v.26c-.47,0-.52.09-.52.82v2.22Z"/><path class="cls-1" d="M271.7,91h-.59l-2.49-3.19h0V89a10.24,10.24,0,0,0,.05,1.28c0,.24.21.33.66.35v.26h-1.68v-.26c.3,0,.47-.11.51-.35s.05-.58.05-1.28V87.77c0-.49,0-.58-.15-.77a.64.64,0,0,0-.51-.21v-.26H269l2.25,2.8h0v-.91c0-.71,0-1.08-.05-1.29s-.22-.32-.67-.34v-.26h1.73v.26c-.34,0-.52.11-.55.34a10.33,10.33,0,0,0-.05,1.29V91Z"/><path class="cls-1" d="M273.66,89.18h.86l-.42-1.28h0l-.42,1.28Zm.85,1.47.21,0c.25,0,.26-.1.17-.34l-.24-.69h-1.11l-.2.65c-.09.29-.09.35.22.39l.2,0v.26h-1.57v-.26c.34-.05.44-.08.67-.64l1.35-3.49.46-.09.46,1.27L276,90c.22.58.34.62.67.66v.26h-2.12v-.26Z"/><path class="cls-1" d="M264.43,97.93c0,.72.06.77.62.81V99h-2.36v-.27c.54,0,.59-.09.59-.81V95h-.11c-.45,0-.63.08-.74.2a1.8,1.8,0,0,0-.25.66h-.29c0-.57.07-1,.09-1.38h.2c.11.16.17.17.36.17h2.69c.17,0,.21,0,.31-.17h.21c0,.29,0,.86.08,1.36l-.3,0a1.53,1.53,0,0,0-.28-.7.91.91,0,0,0-.66-.16h-.16v3Z"/><path class="cls-1" d="M268,97.93c0,.72.06.77.52.81V99H266.3v-.27c.46,0,.52-.09.52-.81V95.7c0-.73-.06-.78-.52-.82v-.26h2.18v.26c-.46,0-.52.09-.52.82v2.23Z"/><path class="cls-1" d="M270.3,96.64c0,1.23.46,2.12,1.12,2.12s.9-.56.9-1.79-.49-2.1-1.07-2.1-.95.59-.95,1.77Zm3.27.12a2.21,2.21,0,0,1-2.28,2.35,2.16,2.16,0,0,1-2.24-2.24,2.26,2.26,0,0,1,2.34-2.35,2.13,2.13,0,0,1,2.18,2.24Z"/><path class="cls-1" d="M266.42,102.72V103c-.51,0-.54.07-.52.78L266,106c0,.75,0,.77.52.82v.26h-2.11v-.26c.5,0,.52-.07.52-.82l0-2.37h0l-1.3,3.38h-.37L262,103.88h0l-.05,1.5a8.9,8.9,0,0,0,0,1.11c0,.25.18.31.62.35v.26h-1.67v-.26c.32,0,.45-.1.49-.35a9.11,9.11,0,0,0,.11-1.18l.07-1.36c.05-.85,0-.92-.54-1v-.26h1.59l1.18,2.67,1-2.67Z"/><path class="cls-1" d="M267.47,103.79c0-.72-.06-.77-.51-.81v-.26h3.2c0,.11,0,.6.07,1.11l-.29,0a1.36,1.36,0,0,0-.25-.63,1,1,0,0,0-.69-.15h-.12c-.25,0-.27,0-.27.23v1.3H269c.58,0,.6,0,.67-.55h.3v1.59h-.3c-.07-.59-.09-.63-.67-.63h-.34v1.1c0,.35,0,.52.14.58a1.19,1.19,0,0,0,.47.06,1,1,0,0,0,.72-.2,2.17,2.17,0,0,0,.33-.7l.29.05a8.57,8.57,0,0,1-.23,1.2h-3.44v-.26c.52,0,.58-.09.58-.82v-2.23Z"/><path class="cls-1" d="M272.07,105.37h.87l-.43-1.28h0l-.42,1.28Zm.86,1.47.2,0c.25,0,.27-.1.18-.34l-.24-.69H272l-.2.65c-.09.29-.09.35.22.39l.2,0v.26H270.6v-.26c.35,0,.45-.08.67-.64l1.35-3.49.47-.1.45,1.28c.3.8.58,1.6.84,2.29s.34.62.67.66v.26h-2.12v-.26Z"/><path class="cls-2" d="M248.9,161.37a1.77,1.77,0,1,1-1.77-1.76,1.77,1.77,0,0,1,1.77,1.76Z"/><path class="cls-2" d="M266.79,164.31a1.77,1.77,0,1,1-1.77-1.77,1.76,1.76,0,0,1,1.77,1.77Z"/><polygon class="cls-2" points="198.23 65.17 198.23 65.17 198.23 65.17 198.23 65.17"/><polygon class="cls-2" points="272.36 33.28 272.36 33.28 272.36 33.28 272.36 33.28"/><polygon class="cls-2" points="300.83 68.34 300.83 68.34 300.83 68.34 300.83 68.34"/><polygon class="cls-2" points="314.55 125.71 314.55 125.71 314.55 125.71 314.55 125.71"/><path class="cls-2" d="M256.67,36.81a1.76,1.76,0,1,1-1.76-1.76,1.76,1.76,0,0,1,1.76,1.76Z"/><path class="cls-2" d="M298.66,53.32A1.77,1.77,0,1,1,297,51.49a1.77,1.77,0,0,1,1.69,1.83Z"/><path class="cls-2" d="M210.18,129.05a5.37,5.37,0,0,1,1,3.1c0,1.24-.42,2.24-2.62,3.76l-6.37,4.54L201,138.77l6.64-4.73c1.12-.77,1.6-1.34,1.61-2.23a3.14,3.14,0,0,0-.62-1.77,2.59,2.59,0,0,0-2.18-1.21c-.65,0-1.36.45-2.61,1.33l-6,4.06-1.15-1.65,5.7-3.87c1.58-1.11,2.85-1.87,4-1.87a4.66,4.66,0,0,1,3.73,2.22Z"/><polygon class="cls-2" points="189.82 116.61 201.94 112.36 202.61 114.2 195.68 122.67 204.44 119.21 205.09 120.99 193.12 125.6 192.44 123.76 199.41 115.28 190.47 118.41 189.82 116.61 189.82 116.61"/><polygon class="cls-2" points="188.01 106.97 200.7 105.08 201 107.11 188.31 109 188.01 106.97 188.01 106.97"/><polygon class="cls-2" points="187.63 91.67 187.68 89.54 200.34 94.69 200.25 96.8 187.25 100.67 187.27 98.54 197.81 95.59 187.63 91.67 187.63 91.67"/><path class="cls-2" d="M196.93,66.86C197.68,65.5,198.22,65,199,65a2.23,2.23,0,0,1,1,.28A1.9,1.9,0,0,1,201.11,67a5.24,5.24,0,0,1-.87,2.33l-.27.48-3.61-2,.57-1ZM199.21,63c-1.81,0-2.65,1-3.81,3.13l-1.5,2.7,11.29,6.13,1-1.77-4.7-2.56.28-.51c.79-1.43,1.06-1.64,3.08-1.47l3.66.32,1-1.89-4.21-.36a6.08,6.08,0,0,0-2.06,0,2.7,2.7,0,0,0-.61.31,3.29,3.29,0,0,0,.14-.68,3.34,3.34,0,0,0-.16-1A3.2,3.2,0,0,0,201,63.48a3.82,3.82,0,0,0-1.83-.5Z"/><polygon class="cls-2" points="213.25 44.85 214.88 43.61 222.66 53.8 221.03 55.05 213.25 44.85 213.25 44.85"/><polygon class="cls-2" points="220.29 39.85 228.59 35.53 229.39 37.09 226.17 38.77 231.28 48.59 229.46 49.54 224.34 39.72 221.1 41.41 220.29 39.85 220.29 39.85"/><polygon class="cls-2" points="240.98 31.63 243.15 31.03 241.41 39.61 242.82 44.48 240.86 45.05 239.48 40.21 233.39 33.86 235.5 33.24 239.88 37.81 240.98 31.63 240.98 31.63"/><polygon class="cls-2" points="280.12 49.17 286.63 38.12 292.75 41.73 291.87 43.24 287.49 40.66 285.69 43.72 289.81 46.14 288.94 47.62 284.82 45.2 281.87 50.2 280.12 49.17 280.12 49.17"/><polygon class="cls-2" points="313.07 77.73 317.74 72.15 318.47 74.36 314.99 78.34 320.15 79.5 320.84 81.58 313.77 79.87 308.75 85.89 308.04 83.71 311.83 79.3 306.16 78 305.47 75.9 313.07 77.73 313.07 77.73"/><polygon class="cls-2" points="309.4 90.34 322.19 89.29 322.77 96.38 321.01 96.53 320.6 91.47 317.07 91.75 317.45 96.52 315.75 96.66 315.36 91.89 309.57 92.36 309.4 90.34 309.4 90.34"/><path class="cls-2" d="M316.07,111.54c-2.5,0-5.42-1.36-5.42-3.88a3.59,3.59,0,0,1,1.45-3,4.76,4.76,0,0,1,2.85-.85c1.28,0,3.57.36,4.77,2a3.22,3.22,0,0,1,.63,1.94,3.56,3.56,0,0,1-1.46,2.91,4.74,4.74,0,0,1-2.82.81Zm-1-9.77a6.59,6.59,0,0,0-3.92,1.18,5.58,5.58,0,0,0-2.29,4.6c0,4.33,4.07,6.07,7.13,6.07a6.55,6.55,0,0,0,3.88-1.17,5.65,5.65,0,0,0,2.27-4.67c0-3.78-3.47-6-7.07-6Z"/><path class="cls-2" d="M305.62,69.53a3.51,3.51,0,0,1-3.46-3.44,5,5,0,0,1,2.6-4,6,6,0,0,1,3.18-1,3.33,3.33,0,0,1,2.92,1.6,3.67,3.67,0,0,1,.57,2,4.72,4.72,0,0,1-2.52,3.83,6.39,6.39,0,0,1-3.29,1.11Zm2-10.45a7.6,7.6,0,0,0-4,1.25,6.69,6.69,0,0,0-3.36,5.44A5.78,5.78,0,0,0,306,71.5a7.73,7.73,0,0,0,4-1.28,6.66,6.66,0,0,0,3.35-5.41,5.69,5.69,0,0,0-.9-3,5.58,5.58,0,0,0-4.82-2.69Z"/><path class="cls-2" d="M272,44.1a3.48,3.48,0,0,1-3-1.82,4.84,4.84,0,0,1-.52-2.3c0-2.3,1.53-5.52,4.33-5.52,1.56,0,3.53,1.17,3.53,4.07,0,1.85-1.3,5.57-4.32,5.57Zm.66-11.44c-2.67,0-5,1.8-5.94,5a7.8,7.8,0,0,0-.34,2.1,6.5,6.5,0,0,0,.74,3.25,5.67,5.67,0,0,0,5,2.91,5.52,5.52,0,0,0,2.66-.66,7.69,7.69,0,0,0,3.59-6.56,6.44,6.44,0,0,0-.73-3.14,5.62,5.62,0,0,0-5-2.9Z"/><polygon class="cls-2" points="201.59 79.17 203.31 79.66 201.37 86.7 188.96 83.3 191.07 76.18 192.76 76.65 191.2 81.79 194.63 82.73 195.95 78.06 197.6 78.53 196.28 83.18 200.15 84.25 201.59 79.17 201.59 79.17"/><path class="cls-2" d="M204.84,52.38a4.77,4.77,0,0,1,3.61-1.86l.31,1.69a3.85,3.85,0,0,0-2.51,1.28,2.49,2.49,0,0,0-.72,1.6,1.37,1.37,0,0,0,.49,1.07c.89.79,2.41-.09,3.36-.47a7.67,7.67,0,0,1,2.8-.72,3.35,3.35,0,0,1,2.31.87,3.59,3.59,0,0,1,1.28,2.73,4.41,4.41,0,0,1-1.27,3,6.43,6.43,0,0,1-3.84,2l-.43-1.72a5.37,5.37,0,0,0,2.87-1.46,2.5,2.5,0,0,0,.7-1.63,1.74,1.74,0,0,0-.6-1.29,1.66,1.66,0,0,0-1.14-.38,7.93,7.93,0,0,0-2.62.81c-1.56.65-3.2,1.17-4.67-.15a3.22,3.22,0,0,1-1.15-2.44,4.48,4.48,0,0,1,1.22-3Z"/><path class="cls-2" d="M313.57,126a2.11,2.11,0,0,1-1.93-1.29,1.85,1.85,0,0,1-.13-.73,5.75,5.75,0,0,1,.68-2.2l.22-.5,3.69,1.66-.4,1c-.7,1.57-1.14,2.07-2.13,2.07Zm-7.57-7.6,4.84,2.19-.23.55c-.67,1.49-.92,1.73-2.94,1.74H304l-.88,2h4.24a6,6,0,0,0,2-.2,2.07,2.07,0,0,0,.54-.32c0,.11-.05.22-.05.33a3.57,3.57,0,0,0,.26,1.35,3.72,3.72,0,0,0,3.32,2c2,0,2.82-1.22,3.81-3.47,0-.08,1.19-2.75,1.19-2.75l-11.66-5.25-.81,1.85Z"/><path class="cls-2" d="M303.81,140.15a4.71,4.71,0,0,1-3-1.18,4.91,4.91,0,0,1-2.08-3.67A5.61,5.61,0,0,1,300.3,132l.85-1.06,7.32,5.84-.56.7c-1.36,1.71-2.29,2.71-4.1,2.71Zm-4.57-9.65c-1.33,1.66-2.34,3.15-2.34,5.08a6.4,6.4,0,0,0,2.62,5,6.5,6.5,0,0,0,4.1,1.53c1.78,0,3.21-.53,5.44-3.32l2-2.54-10-8-1.82,2.28Z"/><path class="cls-2" d="M298.05,154.9a58.23,58.23,0,0,1-32.58,1.81c.31-4.25,2.07-8.79,4.75-9.63a51.4,51.4,0,1,0-46.9-8.62,17.36,17.36,0,0,0-7.26,6c-.93-.64-1.84-1.31-2.68-2l-.46.47a33.67,33.67,0,0,0,2.47,2.56,17,17,0,0,0-2.41,8.74c0,.5,0,1,.08,1.47a71.27,71.27,0,1,1,85-.79Zm-41.36,16.82a65.66,65.66,0,0,1-30.6-8.33c-2.56-1.51-5.61-4.32-5.61-9.12a10,10,0,0,1,.71-3.67,65.52,65.52,0,0,0,8.45,6.17,2.29,2.29,0,0,0,1.29.38,2.4,2.4,0,0,0,.93-4.6c-1.75-.76-5.4-2.27-9.34-4.31a9.9,9.9,0,0,1,12.14-3l2.7,1.58C246,152,268,165.48,294.7,158.09c-10.12,9.13-22.59,13.63-38,13.63Zm8.44,6a4.75,4.75,0,0,0-4.93,4.87,4.8,4.8,0,0,0,4.93,4.85,4.6,4.6,0,0,0,1.18-.16c-.57,4.07-5.31,8.63-11.43,10.68-6.08-2-10.82-6.63-11.45-10.68a4.53,4.53,0,0,0,1.17.16,4.69,4.69,0,0,0,4.93-4.85,4.84,4.84,0,0,0-4.82-4.85,32.12,32.12,0,0,0,2.21-4.86,57.23,57.23,0,0,0,9.77.91c2.53,0,5-.14,7.38-.38a35.05,35.05,0,0,0,1.35,4.34c-.1,0-.19,0-.29,0Zm-34.85-38.67a15.23,15.23,0,0,1,12.59,6.76,48.48,48.48,0,0,1-7.15-2.41h0l-.08,0a12.15,12.15,0,0,0-15,3.85c-.93-.52-1.86-1.06-2.77-1.62a15.11,15.11,0,0,1,12.43-6.55Zm20.07,10.11a5.62,5.62,0,0,0-1.49,1.64c-1.86-.9-4.2-2.07-5.72-2.92a62.13,62.13,0,0,0,7.21,1.28Zm15.6-1a17,17,0,0,0-2.62,8,76.65,76.65,0,0,1-12.57-4.49,5.19,5.19,0,0,1,4.24-2.32A52,52,0,0,0,266,148.2ZM255,147.32a49.5,49.5,0,0,1-9.29-.89,17.29,17.29,0,0,0-20-8.81,49.21,49.21,0,1,1,29.32,9.7Zm-24.72,22.07A15.18,15.18,0,0,1,217,147c.78.71,1.61,1.44,2.48,2.18a11.82,11.82,0,0,0-1.16,5.11c0,4.55,2.3,8.31,6.64,10.87a57,57,0,0,0,8.3,4,15.42,15.42,0,0,1-3,.29Zm98.19-71.32a73.47,73.47,0,1,0-114.88,60.59,17.26,17.26,0,0,0,22.94,11.61,73.58,73.58,0,0,0,8.24,2.2,35.24,35.24,0,0,1-3,6.16h0l-.06,0,1.53,1.53a2.64,2.64,0,0,1,1.31-.35,2.75,2.75,0,0,1,0,5.49,3.92,3.92,0,0,1-3.09-1.75,11.55,11.55,0,0,0-.35,2.86c0,5.27,5.74,11.29,13.72,13.82,8-2.48,13.72-8.54,13.71-13.81a9.93,9.93,0,0,0-.35-2.87,4.15,4.15,0,0,1-3.11,1.75,2.75,2.75,0,1,1,1.44-5.07l1.49-1.48h.05a36,36,0,0,1-1.87-5.63,54.68,54.68,0,0,0,33.22-16.68h0a72.77,72.77,0,0,0,29-58.4Z"/></svg>