<?xml version="1.0" encoding="utf-8"?>
<!-- Generator: Adobe Illustrator 22.0.1, SVG Export Plug-In . SVG Version: 6.00 Build 0)  -->
<svg version="1.1" id="Layer_1" xmlns="http://www.w3.org/2000/svg" xmlns:xlink="http://www.w3.org/1999/xlink" x="0px" y="0px"
	 viewBox="0 0 360 360" style="enable-background:new 0 0 360 360;" xml:space="preserve">
<style type="text/css">
	.st0{fill:#0E2050;}
</style>
<circle class="st0" cx="85" cy="64.5" r="64.3"/>
<g>
	<path class="st0" d="M91,242.1c0.5,0.5,1.1,1,1.8,1.3c0.7,0.3,1.5,0.4,2.4,0.4c0.9,0,1.7-0.1,2.4-0.4s1.3-0.7,1.8-1.3
		c0.5-0.5,0.9-1.2,1.1-2c0.3-0.8,0.4-1.7,0.4-2.7c0-1-0.1-1.9-0.4-2.7c-0.3-0.8-0.6-1.5-1.1-2c-0.5-0.5-1.1-1-1.8-1.3
		c-0.7-0.3-1.5-0.4-2.4-0.4c-0.9,0-1.7,0.1-2.4,0.4c-0.7,0.3-1.3,0.7-1.8,1.3c-0.5,0.6-0.9,1.2-1.1,2c-0.3,0.8-0.4,1.7-0.4,2.7
		c0,1,0.1,1.9,0.4,2.7C90.1,240.9,90.5,241.5,91,242.1z"/>
	<path class="st0" d="M121.1,261.6v8.2h2.6c0.9,0,1.6-0.1,2.2-0.3c0.6-0.2,1.1-0.5,1.5-0.9s0.7-0.9,0.9-1.4c0.2-0.5,0.3-1.1,0.3-1.7
		c0-1.2-0.4-2.2-1.2-2.8c-0.8-0.7-2-1-3.7-1H121.1z"/>
	<path class="st0" d="M119,236.7c0.5-0.2,0.9-0.4,1.2-0.7c0.3-0.3,0.5-0.6,0.7-1c0.1-0.4,0.2-0.8,0.2-1.3c0-0.9-0.3-1.6-0.9-2.1
		c-0.6-0.5-1.5-0.7-2.8-0.7h-2.2v6h2.1C118,237,118.5,236.9,119,236.7z"/>
	<path class="st0" d="M25.5,242.1c0.5,0.5,1.1,1,1.8,1.3c0.7,0.3,1.5,0.4,2.4,0.4c0.9,0,1.7-0.1,2.4-0.4s1.3-0.7,1.8-1.3
		c0.5-0.5,0.9-1.2,1.1-2c0.3-0.8,0.4-1.7,0.4-2.7c0-1-0.1-1.9-0.4-2.7c-0.3-0.8-0.6-1.5-1.1-2c-0.5-0.5-1.1-1-1.8-1.3
		c-0.7-0.3-1.5-0.4-2.4-0.4c-0.9,0-1.7,0.1-2.4,0.4c-0.7,0.3-1.3,0.7-1.8,1.3c-0.5,0.6-0.9,1.2-1.1,2c-0.3,0.8-0.4,1.7-0.4,2.7
		c0,1,0.1,1.9,0.4,2.7C24.6,240.9,25,241.5,25.5,242.1z"/>
	<path class="st0" d="M142.3,243.3c0.7-0.3,1.3-0.7,1.8-1.3c0.5-0.5,0.9-1.2,1.1-2c0.3-0.8,0.4-1.7,0.4-2.7c0-1-0.1-1.9-0.4-2.7
		c-0.3-0.8-0.6-1.5-1.1-2s-1.1-1-1.8-1.3c-0.7-0.3-1.5-0.4-2.4-0.4h-3.5v12.7h3.5C140.8,243.8,141.6,243.6,142.3,243.3z"/>
	<path class="st0" d="M360,196.9h-35V0h-17.7v196.9h-76.1V0h-29.5C212.1,18.9,218,40.6,218,63.7c0,73.5-59.6,133.1-133.1,133.1
		c-32.3,0-61.8-11.5-84.9-30.6V360h360V196.9z M217.8,299.7h-11.4v6.5h8.7v4.8h-8.7v6.6h11.4v4.9H200v-27.7h17.8V299.7z
		 M195.6,256.8h22v5.1h-7.8v22.6h-6.4v-22.6h-7.8V256.8z M196,294.8v5.1h-7.8v22.6h-6.4v-22.6H174v-5.1H196z M173.7,256.8h17.8v4.9
		h-11.4v6.5h8.7v4.8h-8.7v6.6h11.4v4.9h-17.8V256.8z M170.4,311.2c0,1.7-0.3,3.3-0.8,4.7c-0.6,1.4-1.3,2.6-2.4,3.7
		c-1,1-2.3,1.8-3.7,2.4c-1.5,0.6-3.1,0.9-5,0.9c-1.8,0-3.5-0.3-5-0.9c-1.5-0.6-2.7-1.4-3.7-2.4c-1-1-1.8-2.2-2.4-3.7
		c-0.5-1.4-0.8-3-0.8-4.7v-16.4h6.4v16.4c0,1,0.1,1.8,0.4,2.6s0.6,1.4,1.1,2s1,1,1.7,1.2c0.7,0.3,1.4,0.4,2.3,0.4s1.6-0.1,2.3-0.4
		c0.7-0.3,1.3-0.7,1.7-1.2c0.5-0.5,0.8-1.2,1.1-1.9c0.2-0.8,0.4-1.6,0.4-2.6v-16.4h6.4V311.2z M51.8,272.9c0-0.5,0-1,0-1.4v-14.6
		h5.7v27.7H54c-0.5,0-0.9-0.1-1.3-0.2c-0.3-0.2-0.7-0.4-1-0.8l-13.1-16.5c0,0.5,0.1,1,0.1,1.4c0,0.5,0,0.9,0,1.3v14.8h-5.7v-27.7
		h3.4c0.3,0,0.5,0,0.7,0c0.2,0,0.4,0.1,0.5,0.1c0.2,0.1,0.3,0.2,0.4,0.3c0.1,0.1,0.3,0.3,0.5,0.5l13.1,16.6
		C51.8,273.9,51.8,273.4,51.8,272.9z M36.6,294.8c0.3,0,0.5,0,0.7,0c0.2,0,0.4,0.1,0.5,0.1c0.2,0.1,0.3,0.2,0.4,0.3
		c0.1,0.1,0.3,0.3,0.5,0.5l13.1,16.6c-0.1-0.5-0.1-1-0.1-1.5c0-0.5,0-1,0-1.4v-14.6h5.7v27.7H54c-0.5,0-0.9-0.1-1.3-0.2
		c-0.3-0.2-0.7-0.4-1-0.8l-13.1-16.5c0,0.5,0.1,1,0.1,1.4c0,0.5,0,0.9,0,1.3v14.8h-5.7v-27.7H36.6z M121,299.9v-5.1h22v5.1h-7.8
		v22.6h-6.4v-22.6H121z M161,272.9c0-0.5,0-1,0-1.4v-14.6h5.7v27.7h-3.3c-0.5,0-0.9-0.1-1.3-0.2c-0.3-0.2-0.7-0.4-1-0.8L148,266.9
		c0,0.5,0.1,1,0.1,1.4c0,0.5,0,0.9,0,1.3v14.8h-5.7v-27.7h3.4c0.3,0,0.5,0,0.7,0c0.2,0,0.4,0.1,0.5,0.1c0.2,0.1,0.3,0.2,0.4,0.3
		c0.1,0.1,0.3,0.3,0.5,0.5l13.1,16.6C161,273.9,161,273.4,161,272.9z M133,228.4h6.9c1.4,0,2.6,0.2,3.7,0.7c1.1,0.4,2.1,1.1,2.9,1.9
		c0.8,0.8,1.4,1.7,1.9,2.9s0.7,2.3,0.7,3.7c0,1.3-0.2,2.5-0.7,3.6s-1.1,2.1-1.9,2.9c-0.8,0.8-1.8,1.4-2.9,1.9
		c-1.1,0.4-2.4,0.7-3.7,0.7H133V228.4z M132.2,259.1c0.9,0.7,1.5,1.6,1.9,2.6c0.4,1,0.6,2.1,0.6,3.3c0,0.9-0.1,1.7-0.4,2.5
		c-0.2,0.8-0.6,1.5-1.1,2.2c-0.5,0.7-1.1,1.3-1.7,1.8c-0.7,0.5-1.5,1-2.4,1.3c0.4,0.2,0.8,0.5,1.2,0.8c0.4,0.3,0.7,0.7,1,1.2
		l5.9,9.6h-5.8c-1.1,0-1.8-0.4-2.3-1.2l-4.6-8c-0.2-0.4-0.4-0.6-0.7-0.8c-0.3-0.2-0.7-0.2-1.1-0.2h-1.6v10.2h-6.4v-27.7h9
		c2,0,3.7,0.2,5.1,0.6C130.2,257.8,131.4,258.4,132.2,259.1z M111.9,228.4h5.5c1.2,0,2.3,0.1,3.2,0.4c0.9,0.3,1.6,0.6,2.2,1.1
		s1,1,1.2,1.6c0.3,0.6,0.4,1.3,0.4,2.1c0,0.6-0.1,1.2-0.3,1.7c-0.2,0.5-0.4,1-0.8,1.5s-0.8,0.8-1.3,1.2c-0.5,0.3-1.1,0.6-1.7,0.8
		c0.4,0.2,0.8,0.6,1.1,1l4.5,6.7h-3c-0.3,0-0.5-0.1-0.7-0.2c-0.2-0.1-0.4-0.3-0.5-0.5l-3.8-5.8c-0.1-0.2-0.3-0.4-0.5-0.5
		s-0.4-0.1-0.8-0.1h-1.4v7.1h-3.4V228.4z M109.9,294.8h6.5v27.7h-6.5V294.8z M108.1,261.7H96.8v6.5h8.7v4.8h-8.7v6.6h11.4v4.9H90.3
		v-27.7h17.8V261.7z M86.6,233.7c0.4-1.1,1.1-2.1,1.9-2.9c0.8-0.8,1.8-1.5,2.9-1.9c1.1-0.5,2.4-0.7,3.7-0.7c1.4,0,2.6,0.2,3.7,0.7
		s2.1,1.1,2.9,1.9c0.8,0.8,1.4,1.8,1.9,2.9c0.4,1.1,0.7,2.4,0.7,3.7c0,1.3-0.2,2.6-0.7,3.7c-0.4,1.1-1.1,2.1-1.9,2.9
		c-0.8,0.8-1.8,1.5-2.9,1.9c-1.1,0.5-2.4,0.7-3.7,0.7c-1.4,0-2.6-0.2-3.7-0.7c-1.1-0.5-2.1-1.1-2.9-1.9s-1.4-1.8-1.9-2.9
		c-0.4-1.1-0.7-2.4-0.7-3.7C86,236.1,86.2,234.8,86.6,233.7z M105.3,294.8v5.1h-7.8v22.6h-6.4v-22.6h-7.8v-5.1H105.3z M68.1,228.4
		h11.4v2.7h-8v5.4h6.8v2.7h-6.8v7.4h-3.4V228.4z M62.7,256.8h22v5.1h-7.8v22.6h-6.4v-22.6h-7.8V256.8z M63,299.7
		c0.4-1,1-1.9,1.8-2.6c0.8-0.8,1.8-1.4,3-1.9c1.2-0.5,2.5-0.7,4-0.7c0.8,0,1.7,0.1,2.5,0.2c0.8,0.1,1.6,0.3,2.3,0.6
		c0.7,0.3,1.4,0.6,2,0.9s1.2,0.8,1.7,1.2l-1.6,3c-0.2,0.3-0.4,0.5-0.6,0.7s-0.5,0.2-0.8,0.2c-0.3,0-0.6-0.1-0.9-0.3
		c-0.3-0.2-0.7-0.4-1.1-0.6c-0.4-0.2-0.9-0.4-1.5-0.6c-0.5-0.2-1.2-0.3-1.9-0.3c-1.2,0-2.1,0.3-2.7,0.8c-0.6,0.5-0.9,1.2-0.9,2.1
		c0,0.6,0.2,1,0.5,1.4c0.4,0.4,0.8,0.7,1.4,1c0.6,0.3,1.2,0.5,2,0.7c0.7,0.2,1.5,0.5,2.3,0.7s1.5,0.6,2.3,1c0.7,0.4,1.4,0.8,2,1.4
		c0.6,0.6,1,1.3,1.4,2.1c0.4,0.8,0.5,1.8,0.5,3c0,1.3-0.2,2.5-0.7,3.6c-0.4,1.1-1.1,2.1-1.9,2.9c-0.8,0.8-1.9,1.5-3.1,2
		c-1.2,0.5-2.6,0.7-4.2,0.7c-0.9,0-1.7-0.1-2.6-0.3c-0.9-0.2-1.8-0.4-2.6-0.8c-0.8-0.3-1.6-0.7-2.4-1.1c-0.7-0.4-1.4-0.9-1.9-1.5
		l1.9-3c0.1-0.2,0.3-0.4,0.6-0.6c0.3-0.1,0.5-0.2,0.8-0.2c0.4,0,0.8,0.1,1.1,0.4c0.4,0.2,0.8,0.5,1.3,0.8c0.5,0.3,1,0.6,1.7,0.8
		c0.6,0.2,1.4,0.4,2.2,0.4c1.2,0,2.1-0.3,2.7-0.8s1-1.3,1-2.4c0-0.6-0.2-1.2-0.5-1.6s-0.8-0.7-1.4-1s-1.2-0.5-2-0.7
		c-0.7-0.2-1.5-0.4-2.3-0.7c-0.8-0.2-1.5-0.6-2.3-0.9c-0.7-0.4-1.4-0.8-2-1.4c-0.6-0.6-1-1.3-1.4-2.2c-0.4-0.9-0.5-2-0.5-3.3
		C62.3,301.7,62.5,300.7,63,299.7z M44.9,228.4h3.4c0.2,0,0.4,0,0.5,0.1c0.1,0.1,0.2,0.2,0.3,0.3l4.1,6.6c0-0.1,0.1-0.2,0.1-0.3
		c0-0.1,0.1-0.2,0.2-0.3l3.8-5.9c0.2-0.3,0.4-0.5,0.7-0.5h3.2l-5.8,8.6l6,9.4h-3.4c-0.2,0-0.4-0.1-0.5-0.2c-0.1-0.1-0.3-0.3-0.3-0.4
		l-4.2-6.9c0,0.1-0.1,0.2-0.1,0.3s-0.1,0.2-0.1,0.2l-4,6.4c-0.1,0.1-0.2,0.3-0.3,0.4c-0.1,0.1-0.3,0.2-0.5,0.2h-3.1l6-9.3
		L44.9,228.4z M21.2,233.7c0.4-1.1,1.1-2.1,1.9-2.9c0.8-0.8,1.8-1.5,2.9-1.9c1.1-0.5,2.4-0.7,3.7-0.7c1.4,0,2.6,0.2,3.7,0.7
		s2.1,1.1,2.9,1.9c0.8,0.8,1.4,1.8,1.9,2.9c0.4,1.1,0.7,2.4,0.7,3.7c0,1.3-0.2,2.6-0.7,3.7c-0.4,1.1-1.1,2.1-1.9,2.9
		c-0.8,0.8-1.8,1.5-2.9,1.9c-1.1,0.5-2.4,0.7-3.7,0.7c-1.4,0-2.6-0.2-3.7-0.7c-1.1-0.5-2.1-1.1-2.9-1.9s-1.4-1.8-1.9-2.9
		c-0.4-1.1-0.7-2.4-0.7-3.7C20.5,236.1,20.7,234.8,21.2,233.7z M20.3,256.8h6.5v27.7h-6.5V256.8z M20.3,294.8h6.5v27.7h-6.5V294.8z"
		/>
</g>
</svg>
